<mxfile host="www.draw.io" modified="2020-02-10T14:01:38.652Z" agent="Mozilla/5.0 (Macintosh; Intel Mac OS X 10_14_2) AppleWebKit/537.36 (KHTML, like Gecko) Chrome/79.0.3945.117 Safari/537.36" etag="MCy7rsd2u_koJ-yfpGcb" version="12.6.6" type="github">
  <diagram id="x_FaIlI_H5_Zrhrs0Eig" name="业务全景">
    <mxGraphModel dx="946" dy="614" grid="1" gridSize="10" guides="1" tooltips="1" connect="1" arrows="1" fold="1" page="1" pageScale="1" pageWidth="827" pageHeight="1169" math="0" shadow="0">
      <root>
        <mxCell id="0"/>
        <mxCell id="1" parent="0"/>
        <mxCell id="Eg2ai3Ubf1dQmXdRh79p-2" value="" style="rounded=1;whiteSpace=wrap;html=1;dashed=1;arcSize=16;" vertex="1" parent="1">
          <mxGeometry x="130" y="130" width="460" height="340" as="geometry"/>
        </mxCell>
        <mxCell id="Eg2ai3Ubf1dQmXdRh79p-6" style="edgeStyle=orthogonalEdgeStyle;rounded=0;orthogonalLoop=1;jettySize=auto;html=1;exitX=0.5;exitY=1;exitDx=0;exitDy=0;fontSize=16;fontColor=#000000;dashed=1;" edge="1" parent="1" source="Eg2ai3Ubf1dQmXdRh79p-3" target="Eg2ai3Ubf1dQmXdRh79p-4">
          <mxGeometry relative="1" as="geometry"/>
        </mxCell>
        <mxCell id="Eg2ai3Ubf1dQmXdRh79p-3" value="创建任务" style="rounded=1;whiteSpace=wrap;html=1;fillColor=#1ba1e2;strokeColor=#006EAF;fontColor=#000000;fontSize=16;" vertex="1" parent="1">
          <mxGeometry x="160" y="150" width="100" height="50" as="geometry"/>
        </mxCell>
        <mxCell id="Eg2ai3Ubf1dQmXdRh79p-7" style="edgeStyle=orthogonalEdgeStyle;rounded=0;orthogonalLoop=1;jettySize=auto;html=1;exitX=0.5;exitY=1;exitDx=0;exitDy=0;dashed=1;fontSize=16;fontColor=#000000;" edge="1" parent="1" source="Eg2ai3Ubf1dQmXdRh79p-4" target="Eg2ai3Ubf1dQmXdRh79p-5">
          <mxGeometry relative="1" as="geometry"/>
        </mxCell>
        <mxCell id="Eg2ai3Ubf1dQmXdRh79p-22" style="edgeStyle=none;rounded=0;orthogonalLoop=1;jettySize=auto;html=1;exitX=1;exitY=0.5;exitDx=0;exitDy=0;dashed=1;fontSize=14;fontColor=#000000;" edge="1" parent="1" source="Eg2ai3Ubf1dQmXdRh79p-4" target="Eg2ai3Ubf1dQmXdRh79p-17">
          <mxGeometry relative="1" as="geometry"/>
        </mxCell>
        <mxCell id="Eg2ai3Ubf1dQmXdRh79p-4" value="任务审核" style="rounded=1;whiteSpace=wrap;html=1;fillColor=#1ba1e2;strokeColor=#006EAF;fontColor=#000000;fontSize=16;" vertex="1" parent="1">
          <mxGeometry x="160" y="264" width="100" height="50" as="geometry"/>
        </mxCell>
        <mxCell id="Eg2ai3Ubf1dQmXdRh79p-5" value="任务查看" style="rounded=1;whiteSpace=wrap;html=1;fillColor=#1ba1e2;strokeColor=#006EAF;fontColor=#000000;fontSize=16;" vertex="1" parent="1">
          <mxGeometry x="160" y="390" width="100" height="50" as="geometry"/>
        </mxCell>
        <mxCell id="Eg2ai3Ubf1dQmXdRh79p-13" style="rounded=0;orthogonalLoop=1;jettySize=auto;html=1;exitX=0.9;exitY=0.5;exitDx=0;exitDy=0;exitPerimeter=0;entryX=0;entryY=0.5;entryDx=0;entryDy=0;dashed=1;fontSize=16;fontColor=#000000;edgeStyle=orthogonalEdgeStyle;" edge="1" parent="1" source="Eg2ai3Ubf1dQmXdRh79p-8" target="Eg2ai3Ubf1dQmXdRh79p-3">
          <mxGeometry relative="1" as="geometry">
            <Array as="points">
              <mxPoint x="110" y="234"/>
              <mxPoint x="110" y="175"/>
            </Array>
          </mxGeometry>
        </mxCell>
        <mxCell id="Eg2ai3Ubf1dQmXdRh79p-15" value="&lt;font style=&quot;font-size: 14px&quot;&gt;配置&lt;/font&gt;" style="text;html=1;align=center;verticalAlign=middle;resizable=0;points=[];labelBackgroundColor=#ffffff;fontSize=16;fontColor=#000000;" vertex="1" connectable="0" parent="Eg2ai3Ubf1dQmXdRh79p-13">
          <mxGeometry x="-0.0239" y="-1" relative="1" as="geometry">
            <mxPoint as="offset"/>
          </mxGeometry>
        </mxCell>
        <mxCell id="Eg2ai3Ubf1dQmXdRh79p-14" style="edgeStyle=orthogonalEdgeStyle;rounded=0;orthogonalLoop=1;jettySize=auto;html=1;exitX=0.9;exitY=0.5;exitDx=0;exitDy=0;exitPerimeter=0;entryX=0;entryY=0.5;entryDx=0;entryDy=0;dashed=1;fontSize=16;fontColor=#000000;" edge="1" parent="1" source="Eg2ai3Ubf1dQmXdRh79p-8" target="Eg2ai3Ubf1dQmXdRh79p-4">
          <mxGeometry relative="1" as="geometry">
            <Array as="points">
              <mxPoint x="110" y="234"/>
              <mxPoint x="110" y="289"/>
            </Array>
          </mxGeometry>
        </mxCell>
        <mxCell id="Eg2ai3Ubf1dQmXdRh79p-16" value="审核" style="text;html=1;align=center;verticalAlign=middle;resizable=0;points=[];labelBackgroundColor=#ffffff;fontSize=14;fontColor=#000000;" vertex="1" connectable="0" parent="Eg2ai3Ubf1dQmXdRh79p-14">
          <mxGeometry x="-0.21" y="-1" relative="1" as="geometry">
            <mxPoint x="1" as="offset"/>
          </mxGeometry>
        </mxCell>
        <mxCell id="Eg2ai3Ubf1dQmXdRh79p-8" value="&lt;br&gt;运营" style="shape=actor;whiteSpace=wrap;html=1;fillColor=#176FBD;fontSize=16;fontColor=#ffffff;strokeColor=#006EAF;" vertex="1" parent="1">
          <mxGeometry x="10" y="204" width="70" height="60" as="geometry"/>
        </mxCell>
        <mxCell id="Eg2ai3Ubf1dQmXdRh79p-12" style="edgeStyle=orthogonalEdgeStyle;rounded=0;orthogonalLoop=1;jettySize=auto;html=1;exitX=0.9;exitY=0.5;exitDx=0;exitDy=0;exitPerimeter=0;dashed=1;fontSize=16;fontColor=#000000;" edge="1" parent="1" source="Eg2ai3Ubf1dQmXdRh79p-11" target="Eg2ai3Ubf1dQmXdRh79p-5">
          <mxGeometry relative="1" as="geometry"/>
        </mxCell>
        <mxCell id="Eg2ai3Ubf1dQmXdRh79p-11" value="&lt;br&gt;商户" style="shape=actor;whiteSpace=wrap;html=1;fillColor=#176FBD;fontSize=16;fontColor=#ffffff;strokeColor=#006EAF;" vertex="1" parent="1">
          <mxGeometry x="10" y="385" width="70" height="60" as="geometry"/>
        </mxCell>
        <mxCell id="Eg2ai3Ubf1dQmXdRh79p-25" style="edgeStyle=none;rounded=0;orthogonalLoop=1;jettySize=auto;html=1;exitX=0.5;exitY=1;exitDx=0;exitDy=0;dashed=1;fontSize=14;fontColor=#000000;" edge="1" parent="1" source="Eg2ai3Ubf1dQmXdRh79p-17" target="Eg2ai3Ubf1dQmXdRh79p-24">
          <mxGeometry relative="1" as="geometry"/>
        </mxCell>
        <mxCell id="Eg2ai3Ubf1dQmXdRh79p-67" style="rounded=0;orthogonalLoop=1;jettySize=auto;html=1;exitX=1;exitY=1;exitDx=0;exitDy=0;entryX=0;entryY=0;entryDx=0;entryDy=0;dashed=1;fontSize=12;fontColor=#000000;" edge="1" parent="1" source="Eg2ai3Ubf1dQmXdRh79p-17" target="Eg2ai3Ubf1dQmXdRh79p-66">
          <mxGeometry relative="1" as="geometry"/>
        </mxCell>
        <mxCell id="Eg2ai3Ubf1dQmXdRh79p-17" value="任务发放" style="rounded=1;whiteSpace=wrap;html=1;fillColor=#1ba1e2;strokeColor=#006EAF;fontColor=#000000;fontSize=16;" vertex="1" parent="1">
          <mxGeometry x="330" y="264" width="100" height="50" as="geometry"/>
        </mxCell>
        <mxCell id="Eg2ai3Ubf1dQmXdRh79p-47" style="edgeStyle=orthogonalEdgeStyle;rounded=0;orthogonalLoop=1;jettySize=auto;html=1;exitX=0.5;exitY=1;exitDx=0;exitDy=0;entryX=0.5;entryY=0;entryDx=0;entryDy=0;dashed=1;fontSize=14;fontColor=#000000;" edge="1" parent="1" source="Eg2ai3Ubf1dQmXdRh79p-18" target="Eg2ai3Ubf1dQmXdRh79p-3">
          <mxGeometry relative="1" as="geometry"/>
        </mxCell>
        <mxCell id="Eg2ai3Ubf1dQmXdRh79p-49" value="选择预算" style="text;html=1;align=center;verticalAlign=middle;resizable=0;points=[];labelBackgroundColor=#ffffff;fontSize=14;fontColor=#000000;" vertex="1" connectable="0" parent="Eg2ai3Ubf1dQmXdRh79p-47">
          <mxGeometry x="-0.7375" relative="1" as="geometry">
            <mxPoint y="9" as="offset"/>
          </mxGeometry>
        </mxCell>
        <mxCell id="Eg2ai3Ubf1dQmXdRh79p-18" value="预算池" style="rounded=1;whiteSpace=wrap;html=1;fillColor=#bac8d3;strokeColor=#23445d;fontSize=16;" vertex="1" parent="1">
          <mxGeometry x="230" y="10" width="100" height="50" as="geometry"/>
        </mxCell>
        <mxCell id="Eg2ai3Ubf1dQmXdRh79p-21" style="edgeStyle=orthogonalEdgeStyle;rounded=0;orthogonalLoop=1;jettySize=auto;html=1;exitX=0.5;exitY=1;exitDx=0;exitDy=0;entryX=0.5;entryY=0;entryDx=0;entryDy=0;dashed=1;fontSize=14;fontColor=#000000;" edge="1" parent="1" source="Eg2ai3Ubf1dQmXdRh79p-19" target="Eg2ai3Ubf1dQmXdRh79p-3">
          <mxGeometry relative="1" as="geometry"/>
        </mxCell>
        <mxCell id="Eg2ai3Ubf1dQmXdRh79p-48" value="选择奖励" style="text;html=1;align=center;verticalAlign=middle;resizable=0;points=[];labelBackgroundColor=#ffffff;fontSize=14;fontColor=#000000;" vertex="1" connectable="0" parent="Eg2ai3Ubf1dQmXdRh79p-21">
          <mxGeometry x="-0.6133" y="-2" relative="1" as="geometry">
            <mxPoint as="offset"/>
          </mxGeometry>
        </mxCell>
        <mxCell id="Eg2ai3Ubf1dQmXdRh79p-19" value="奖励池" style="rounded=1;whiteSpace=wrap;html=1;fillColor=#bac8d3;strokeColor=#23445d;fontSize=16;" vertex="1" parent="1">
          <mxGeometry x="100" y="10" width="100" height="50" as="geometry"/>
        </mxCell>
        <mxCell id="Eg2ai3Ubf1dQmXdRh79p-29" style="edgeStyle=orthogonalEdgeStyle;rounded=0;orthogonalLoop=1;jettySize=auto;html=1;exitX=0.58;exitY=0.98;exitDx=0;exitDy=0;dashed=1;fontSize=14;fontColor=#000000;exitPerimeter=0;" edge="1" parent="1" source="Eg2ai3Ubf1dQmXdRh79p-23" target="Eg2ai3Ubf1dQmXdRh79p-27">
          <mxGeometry relative="1" as="geometry"/>
        </mxCell>
        <mxCell id="Eg2ai3Ubf1dQmXdRh79p-46" value="熔断" style="text;html=1;align=center;verticalAlign=middle;resizable=0;points=[];labelBackgroundColor=#ffffff;fontSize=14;fontColor=#000000;" vertex="1" connectable="0" parent="Eg2ai3Ubf1dQmXdRh79p-29">
          <mxGeometry x="-0.1892" y="-1" relative="1" as="geometry">
            <mxPoint as="offset"/>
          </mxGeometry>
        </mxCell>
        <mxCell id="Eg2ai3Ubf1dQmXdRh79p-53" style="edgeStyle=orthogonalEdgeStyle;rounded=0;orthogonalLoop=1;jettySize=auto;html=1;exitX=1;exitY=0.5;exitDx=0;exitDy=0;entryX=0.5;entryY=0;entryDx=0;entryDy=0;dashed=1;fontSize=14;fontColor=#000000;" edge="1" parent="1" source="Eg2ai3Ubf1dQmXdRh79p-23" target="Eg2ai3Ubf1dQmXdRh79p-50">
          <mxGeometry relative="1" as="geometry"/>
        </mxCell>
        <mxCell id="Eg2ai3Ubf1dQmXdRh79p-54" value="下线补贴" style="text;html=1;align=center;verticalAlign=middle;resizable=0;points=[];labelBackgroundColor=#ffffff;fontSize=14;fontColor=#000000;" vertex="1" connectable="0" parent="Eg2ai3Ubf1dQmXdRh79p-53">
          <mxGeometry x="0.178" y="2" relative="1" as="geometry">
            <mxPoint as="offset"/>
          </mxGeometry>
        </mxCell>
        <mxCell id="Eg2ai3Ubf1dQmXdRh79p-23" value="预算管控" style="rounded=1;whiteSpace=wrap;html=1;fillColor=#1ba1e2;strokeColor=#006EAF;fontColor=#000000;fontSize=16;" vertex="1" parent="1">
          <mxGeometry x="380" y="154" width="100" height="50" as="geometry"/>
        </mxCell>
        <mxCell id="Eg2ai3Ubf1dQmXdRh79p-28" style="edgeStyle=orthogonalEdgeStyle;rounded=0;orthogonalLoop=1;jettySize=auto;html=1;exitX=1;exitY=0.5;exitDx=0;exitDy=0;entryX=0.5;entryY=1;entryDx=0;entryDy=0;dashed=1;fontSize=14;fontColor=#000000;" edge="1" parent="1" source="Eg2ai3Ubf1dQmXdRh79p-24" target="Eg2ai3Ubf1dQmXdRh79p-27">
          <mxGeometry relative="1" as="geometry"/>
        </mxCell>
        <mxCell id="Eg2ai3Ubf1dQmXdRh79p-34" style="edgeStyle=orthogonalEdgeStyle;rounded=0;orthogonalLoop=1;jettySize=auto;html=1;exitX=0.5;exitY=1;exitDx=0;exitDy=0;dashed=1;fontSize=14;fontColor=#000000;" edge="1" parent="1" source="Eg2ai3Ubf1dQmXdRh79p-24" target="Eg2ai3Ubf1dQmXdRh79p-32">
          <mxGeometry relative="1" as="geometry"/>
        </mxCell>
        <mxCell id="Eg2ai3Ubf1dQmXdRh79p-43" value="实时" style="text;html=1;align=center;verticalAlign=middle;resizable=0;points=[];labelBackgroundColor=#ffffff;fontSize=14;fontColor=#000000;" vertex="1" connectable="0" parent="Eg2ai3Ubf1dQmXdRh79p-34">
          <mxGeometry x="0.075" y="2" relative="1" as="geometry">
            <mxPoint x="-2" y="21" as="offset"/>
          </mxGeometry>
        </mxCell>
        <mxCell id="Eg2ai3Ubf1dQmXdRh79p-42" style="edgeStyle=orthogonalEdgeStyle;rounded=0;orthogonalLoop=1;jettySize=auto;html=1;exitX=0.5;exitY=1;exitDx=0;exitDy=0;dashed=1;fontSize=14;fontColor=#000000;entryX=0.5;entryY=0;entryDx=0;entryDy=0;" edge="1" parent="1" source="Eg2ai3Ubf1dQmXdRh79p-24" target="Eg2ai3Ubf1dQmXdRh79p-33">
          <mxGeometry relative="1" as="geometry"/>
        </mxCell>
        <mxCell id="Eg2ai3Ubf1dQmXdRh79p-44" value="离线" style="text;html=1;align=center;verticalAlign=middle;resizable=0;points=[];labelBackgroundColor=#ffffff;fontSize=14;fontColor=#000000;" vertex="1" connectable="0" parent="Eg2ai3Ubf1dQmXdRh79p-42">
          <mxGeometry x="0.525" y="1" relative="1" as="geometry">
            <mxPoint x="7" y="26" as="offset"/>
          </mxGeometry>
        </mxCell>
        <mxCell id="Eg2ai3Ubf1dQmXdRh79p-24" value="状态判断" style="rounded=1;whiteSpace=wrap;html=1;fillColor=#1ba1e2;strokeColor=#006EAF;fontColor=#000000;fontSize=16;" vertex="1" parent="1">
          <mxGeometry x="330" y="390" width="100" height="50" as="geometry"/>
        </mxCell>
        <mxCell id="Eg2ai3Ubf1dQmXdRh79p-38" style="edgeStyle=orthogonalEdgeStyle;rounded=0;orthogonalLoop=1;jettySize=auto;html=1;exitX=1;exitY=0.5;exitDx=0;exitDy=0;entryX=0;entryY=0.5;entryDx=0;entryDy=0;dashed=1;fontSize=14;fontColor=#000000;" edge="1" parent="1" target="Eg2ai3Ubf1dQmXdRh79p-36">
          <mxGeometry relative="1" as="geometry">
            <mxPoint x="580" y="289" as="sourcePoint"/>
            <Array as="points">
              <mxPoint x="610" y="289"/>
              <mxPoint x="610" y="324"/>
            </Array>
          </mxGeometry>
        </mxCell>
        <mxCell id="Eg2ai3Ubf1dQmXdRh79p-40" value="体验金" style="text;html=1;align=center;verticalAlign=middle;resizable=0;points=[];labelBackgroundColor=#ffffff;fontSize=14;fontColor=#000000;" vertex="1" connectable="0" parent="Eg2ai3Ubf1dQmXdRh79p-38">
          <mxGeometry x="0.1407" relative="1" as="geometry">
            <mxPoint x="22" as="offset"/>
          </mxGeometry>
        </mxCell>
        <mxCell id="Eg2ai3Ubf1dQmXdRh79p-39" style="edgeStyle=orthogonalEdgeStyle;rounded=0;orthogonalLoop=1;jettySize=auto;html=1;exitX=1;exitY=0.5;exitDx=0;exitDy=0;entryX=0;entryY=0.5;entryDx=0;entryDy=0;dashed=1;fontSize=14;fontColor=#000000;" edge="1" parent="1" target="Eg2ai3Ubf1dQmXdRh79p-37">
          <mxGeometry relative="1" as="geometry">
            <mxPoint x="580" y="289" as="sourcePoint"/>
            <Array as="points">
              <mxPoint x="610" y="289"/>
              <mxPoint x="610" y="430"/>
            </Array>
          </mxGeometry>
        </mxCell>
        <mxCell id="Eg2ai3Ubf1dQmXdRh79p-41" value="现金" style="text;html=1;align=center;verticalAlign=middle;resizable=0;points=[];labelBackgroundColor=#ffffff;fontSize=14;fontColor=#000000;" vertex="1" connectable="0" parent="Eg2ai3Ubf1dQmXdRh79p-39">
          <mxGeometry x="0.305" y="1" relative="1" as="geometry">
            <mxPoint x="39" y="7" as="offset"/>
          </mxGeometry>
        </mxCell>
        <mxCell id="Eg2ai3Ubf1dQmXdRh79p-51" style="edgeStyle=orthogonalEdgeStyle;rounded=0;orthogonalLoop=1;jettySize=auto;html=1;exitX=1;exitY=0.5;exitDx=0;exitDy=0;entryX=0;entryY=0.5;entryDx=0;entryDy=0;dashed=1;fontSize=14;fontColor=#000000;" edge="1" parent="1" target="Eg2ai3Ubf1dQmXdRh79p-50">
          <mxGeometry relative="1" as="geometry">
            <mxPoint x="580" y="289" as="sourcePoint"/>
            <Array as="points">
              <mxPoint x="610" y="289"/>
              <mxPoint x="610" y="230"/>
            </Array>
          </mxGeometry>
        </mxCell>
        <mxCell id="Eg2ai3Ubf1dQmXdRh79p-52" value="补贴" style="text;html=1;align=center;verticalAlign=middle;resizable=0;points=[];labelBackgroundColor=#ffffff;fontSize=14;fontColor=#000000;" vertex="1" connectable="0" parent="Eg2ai3Ubf1dQmXdRh79p-51">
          <mxGeometry x="0.6961" y="-1" relative="1" as="geometry">
            <mxPoint x="-14" y="-1" as="offset"/>
          </mxGeometry>
        </mxCell>
        <mxCell id="Eg2ai3Ubf1dQmXdRh79p-27" value="奖励发放" style="rounded=1;whiteSpace=wrap;html=1;fillColor=#1ba1e2;strokeColor=#006EAF;fontColor=#000000;fontSize=16;" vertex="1" parent="1">
          <mxGeometry x="480" y="264" width="100" height="50" as="geometry"/>
        </mxCell>
        <mxCell id="Eg2ai3Ubf1dQmXdRh79p-31" style="edgeStyle=orthogonalEdgeStyle;rounded=0;orthogonalLoop=1;jettySize=auto;html=1;exitX=0.5;exitY=1;exitDx=0;exitDy=0;dashed=1;fontSize=14;fontColor=#000000;" edge="1" parent="1" source="Eg2ai3Ubf1dQmXdRh79p-30" target="Eg2ai3Ubf1dQmXdRh79p-23">
          <mxGeometry relative="1" as="geometry"/>
        </mxCell>
        <mxCell id="Eg2ai3Ubf1dQmXdRh79p-45" value="熔断" style="text;html=1;align=center;verticalAlign=middle;resizable=0;points=[];labelBackgroundColor=#ffffff;fontSize=14;fontColor=#000000;" vertex="1" connectable="0" parent="Eg2ai3Ubf1dQmXdRh79p-31">
          <mxGeometry x="-0.6413" y="1" relative="1" as="geometry">
            <mxPoint x="-1" y="13" as="offset"/>
          </mxGeometry>
        </mxCell>
        <mxCell id="Eg2ai3Ubf1dQmXdRh79p-30" value="预算管控" style="rounded=1;whiteSpace=wrap;html=1;fillColor=#bac8d3;strokeColor=#23445d;fontSize=16;" vertex="1" parent="1">
          <mxGeometry x="380" y="10" width="100" height="50" as="geometry"/>
        </mxCell>
        <mxCell id="Eg2ai3Ubf1dQmXdRh79p-32" value="交易系统" style="rounded=1;whiteSpace=wrap;html=1;fillColor=#bac8d3;strokeColor=#23445d;fontSize=16;" vertex="1" parent="1">
          <mxGeometry x="360" y="550" width="100" height="50" as="geometry"/>
        </mxCell>
        <mxCell id="Eg2ai3Ubf1dQmXdRh79p-33" value="数据模块" style="rounded=1;whiteSpace=wrap;html=1;fillColor=#bac8d3;strokeColor=#23445d;fontSize=16;" vertex="1" parent="1">
          <mxGeometry x="480" y="550" width="100" height="50" as="geometry"/>
        </mxCell>
        <mxCell id="Eg2ai3Ubf1dQmXdRh79p-36" value="CPC" style="rounded=1;whiteSpace=wrap;html=1;fillColor=#bac8d3;strokeColor=#23445d;fontSize=16;" vertex="1" parent="1">
          <mxGeometry x="690" y="299" width="100" height="50" as="geometry"/>
        </mxCell>
        <mxCell id="Eg2ai3Ubf1dQmXdRh79p-37" value="账户" style="rounded=1;whiteSpace=wrap;html=1;fillColor=#bac8d3;strokeColor=#23445d;fontSize=16;" vertex="1" parent="1">
          <mxGeometry x="690" y="405" width="100" height="50" as="geometry"/>
        </mxCell>
        <mxCell id="Eg2ai3Ubf1dQmXdRh79p-50" value="营销" style="rounded=1;whiteSpace=wrap;html=1;fillColor=#bac8d3;strokeColor=#23445d;fontSize=16;" vertex="1" parent="1">
          <mxGeometry x="690" y="205" width="100" height="50" as="geometry"/>
        </mxCell>
        <mxCell id="Eg2ai3Ubf1dQmXdRh79p-55" value="" style="rounded=0;whiteSpace=wrap;html=1;fillColor=none;fontSize=14;fontColor=#000000;dashed=1;" vertex="1" parent="1">
          <mxGeometry x="678" y="5" width="120" height="115" as="geometry"/>
        </mxCell>
        <mxCell id="Eg2ai3Ubf1dQmXdRh79p-56" value="图例说明" style="text;html=1;align=center;verticalAlign=middle;resizable=0;points=[];autosize=1;fontSize=14;fontColor=#FF0000;" vertex="1" parent="1">
          <mxGeometry x="677" y="7" width="70" height="20" as="geometry"/>
        </mxCell>
        <mxCell id="Eg2ai3Ubf1dQmXdRh79p-57" value="" style="rounded=1;whiteSpace=wrap;html=1;fillColor=#1ba1e2;strokeColor=#006EAF;fontColor=#000000;fontSize=16;" vertex="1" parent="1">
          <mxGeometry x="692" y="33.5" width="40" height="15" as="geometry"/>
        </mxCell>
        <mxCell id="Eg2ai3Ubf1dQmXdRh79p-58" value="内部模块" style="text;html=1;align=center;verticalAlign=middle;resizable=0;points=[];autosize=1;fontSize=12;fontColor=#000000;" vertex="1" parent="1">
          <mxGeometry x="738" y="31" width="60" height="20" as="geometry"/>
        </mxCell>
        <mxCell id="Eg2ai3Ubf1dQmXdRh79p-60" value="" style="rounded=1;whiteSpace=wrap;html=1;fillColor=#bac8d3;strokeColor=#23445d;fontSize=16;" vertex="1" parent="1">
          <mxGeometry x="692" y="55.5" width="40" height="15" as="geometry"/>
        </mxCell>
        <mxCell id="Eg2ai3Ubf1dQmXdRh79p-61" value="外部系统" style="text;html=1;align=center;verticalAlign=middle;resizable=0;points=[];autosize=1;fontSize=12;fontColor=#000000;" vertex="1" parent="1">
          <mxGeometry x="738" y="53" width="60" height="20" as="geometry"/>
        </mxCell>
        <mxCell id="Eg2ai3Ubf1dQmXdRh79p-62" value="" style="endArrow=classic;html=1;dashed=1;fontSize=12;fontColor=#000000;" edge="1" parent="1">
          <mxGeometry width="50" height="50" relative="1" as="geometry">
            <mxPoint x="694" y="84" as="sourcePoint"/>
            <mxPoint x="734" y="84" as="targetPoint"/>
          </mxGeometry>
        </mxCell>
        <mxCell id="Eg2ai3Ubf1dQmXdRh79p-63" value="依赖" style="text;html=1;align=center;verticalAlign=middle;resizable=0;points=[];autosize=1;fontSize=12;fontColor=#000000;" vertex="1" parent="1">
          <mxGeometry x="748" y="73" width="40" height="20" as="geometry"/>
        </mxCell>
        <mxCell id="Eg2ai3Ubf1dQmXdRh79p-64" value="" style="shape=actor;whiteSpace=wrap;html=1;fillColor=#176FBD;fontSize=16;fontColor=#ffffff;strokeColor=#006EAF;" vertex="1" parent="1">
          <mxGeometry x="701.5" y="95" width="21" height="13" as="geometry"/>
        </mxCell>
        <mxCell id="Eg2ai3Ubf1dQmXdRh79p-65" value="角色" style="text;html=1;align=center;verticalAlign=middle;resizable=0;points=[];autosize=1;fontSize=12;fontColor=#000000;" vertex="1" parent="1">
          <mxGeometry x="748" y="91.5" width="40" height="20" as="geometry"/>
        </mxCell>
        <mxCell id="Eg2ai3Ubf1dQmXdRh79p-66" value="触达" style="rounded=1;whiteSpace=wrap;html=1;fillColor=#bac8d3;strokeColor=#23445d;fontSize=16;" vertex="1" parent="1">
          <mxGeometry x="690" y="550" width="100" height="50" as="geometry"/>
        </mxCell>
        <mxCell id="Eg2ai3Ubf1dQmXdRh79p-70" style="edgeStyle=orthogonalEdgeStyle;rounded=0;orthogonalLoop=1;jettySize=auto;html=1;exitX=0.5;exitY=0;exitDx=0;exitDy=0;entryX=0.25;entryY=1;entryDx=0;entryDy=0;dashed=1;fontSize=12;fontColor=#000000;" edge="1" parent="1" source="Eg2ai3Ubf1dQmXdRh79p-69" target="Eg2ai3Ubf1dQmXdRh79p-24">
          <mxGeometry relative="1" as="geometry"/>
        </mxCell>
        <mxCell id="Eg2ai3Ubf1dQmXdRh79p-73" value="定时触发" style="text;html=1;align=center;verticalAlign=middle;resizable=0;points=[];labelBackgroundColor=#ffffff;fontSize=12;fontColor=#000000;" vertex="1" connectable="0" parent="Eg2ai3Ubf1dQmXdRh79p-70">
          <mxGeometry x="-0.7379" y="-3" relative="1" as="geometry">
            <mxPoint x="-3" y="8" as="offset"/>
          </mxGeometry>
        </mxCell>
        <mxCell id="Eg2ai3Ubf1dQmXdRh79p-69" value="Workflow" style="rounded=1;whiteSpace=wrap;html=1;fillColor=#bac8d3;strokeColor=#23445d;fontSize=16;" vertex="1" parent="1">
          <mxGeometry x="100" y="550" width="100" height="50" as="geometry"/>
        </mxCell>
        <mxCell id="Eg2ai3Ubf1dQmXdRh79p-72" style="edgeStyle=orthogonalEdgeStyle;rounded=0;orthogonalLoop=1;jettySize=auto;html=1;exitX=0.5;exitY=0;exitDx=0;exitDy=0;dashed=1;fontSize=12;fontColor=#000000;entryX=0.25;entryY=1;entryDx=0;entryDy=0;" edge="1" parent="1" source="Eg2ai3Ubf1dQmXdRh79p-71" target="Eg2ai3Ubf1dQmXdRh79p-24">
          <mxGeometry relative="1" as="geometry">
            <mxPoint x="330" y="430" as="targetPoint"/>
          </mxGeometry>
        </mxCell>
        <mxCell id="Eg2ai3Ubf1dQmXdRh79p-74" value="实时监听" style="text;html=1;align=center;verticalAlign=middle;resizable=0;points=[];labelBackgroundColor=#ffffff;fontSize=12;fontColor=#000000;" vertex="1" connectable="0" parent="Eg2ai3Ubf1dQmXdRh79p-72">
          <mxGeometry x="-0.6889" y="-1" relative="1" as="geometry">
            <mxPoint as="offset"/>
          </mxGeometry>
        </mxCell>
        <mxCell id="Eg2ai3Ubf1dQmXdRh79p-71" value="MQ" style="rounded=1;whiteSpace=wrap;html=1;fillColor=#bac8d3;strokeColor=#23445d;fontSize=16;" vertex="1" parent="1">
          <mxGeometry x="220" y="550" width="100" height="50" as="geometry"/>
        </mxCell>
      </root>
    </mxGraphModel>
  </diagram>
</mxfile>
